<svg id="Calque_1" data-name="Calque 1" xmlns="http://www.w3.org/2000/svg" viewBox="0 0 48 48"><defs><style>.cls-1{fill:none;}</style></defs><path d="M39.69,16A14.91,14.91,0,1,1,24.9,1,14.92,14.92,0,0,1,39.69,16Zm-14.92,7.9a8,8,0,1,0-8-8A7.94,7.94,0,0,0,24.77,23.88Z"/><path d="M39.47,33.84A14.63,14.63,0,0,1,24.63,47c-9.17-.09-14.3-7.73-14.53-13.16,1.55,0,3.11.1,4.65,0a2.42,2.42,0,0,1,2.92,1.76,7.54,7.54,0,0,0,7.57,4.5,7.82,7.82,0,0,0,7.05-5.32,1.15,1.15,0,0,1,1.34-.93C35.56,33.88,37.48,33.84,39.47,33.84Z"/><path class="cls-1" d="M24.77,23.88a8,8,0,1,1,8-7.91A7.95,7.95,0,0,1,24.77,23.88Z"/></svg>