<svg id="Calque_1" data-name="Calque 1" xmlns="http://www.w3.org/2000/svg" viewBox="0 0 1920 546"><defs><style>.cls-1{fill:none;}</style></defs><path d="M1014.7,379H950.32c-1.19-8.32-2.37-16.52-3.7-25.79-2.09,1.68-3.58,2.56-4.65,3.8-34.09,39.45-105.9,37.35-140.28-10.4-20-27.82-26.56-59.51-27.66-92.83-1-30,1.91-59.45,14.49-87.32,25.81-57.17,80.39-68.38,122.26-53.55,5.92,2.09,11.5,5.51,16.77,9,5,3.3,9.28,7.52,15.49,12.67V.35h71.66ZM943.06,246.46c0-15.51.18-31-.12-46.52a24.16,24.16,0,0,0-2.74-11.21C929.92,171,913.69,164.81,894,165.65c-17.44.75-30.91,8.86-37.2,24.77a170.66,170.66,0,0,0-10.3,42.07c-2.68,22.46-1.6,45.06,8,66.14,13.17,28.77,48.36,37.42,73.72,18.26,9.58-7.25,15.77-16.26,15-29.4C942.44,273.86,943.07,260.14,943.06,246.46Z"/><path d="M658.37,216.47c5.38-30.63-5.31-50.91-28.36-55.2-26.22-4.87-43.89,5.91-48.57,30.21H510.25c.59-25.56,12.18-45,31.59-59.91,19.87-15.31,43.11-22.21,67.77-24,25.09-1.79,49.88-.12,73,11.31,32.74,16.19,48.34,43.15,48.68,79.15.33,34.05,0,68.11.11,102.17.09,25.53-.26,51.15,10.52,75.2.34.75.05,1.77.05,3.77-23.17,0-46.16.11-69.14-.22-1.87,0-4.55-2.71-5.38-4.76C665.32,369,664,363.37,662.09,357c-12.46,12.29-26.25,21.58-43.11,24.79-38,7.23-72.5,1.07-98.35-30.06-29.05-35-19.52-90.59,18.78-115.08,23.88-15.27,50.71-19.52,78.37-20.11C631.38,216.23,645,216.47,658.37,216.47Zm1.17,40.27c-18.13,1.41-35,2-51.7,4.4-6.8,1-13.84,4.95-19.33,9.35-11.51,9.24-14.22,22.3-11.29,36.24,2.42,11.51,10.6,18.68,21.69,20.91,21.32,4.29,40.43-.6,55.47-17.12,2.48-2.72,4.78-6.74,4.93-10.25C659.88,286.68,659.54,273,659.54,256.74Z"/><path d="M1436.65,269.52H1269.28c-.33,20.71,15.14,42.79,35.56,51.57,29.73,12.78,63,4.4,92.71-23.9l35.81,39.92c-8.33,7.85-15.7,16.29-24.48,22.82-47.84,35.58-126.46,32.41-171.56-6.65-23.31-20.19-36.79-46-40.26-76.44-4.34-38-2.61-75.47,16.94-109.82,22.2-39,56.55-58,100.94-59.75,26.75-1,52.19,3.59,74.5,19.33,30,21.14,43.46,51.82,46.9,87C1438.1,231.61,1436.65,249.92,1436.65,269.52Zm-69.88-49.39c3-30.88-14-53.32-40.67-54.72-32.8-1.71-56.28,21-56.33,54.72Z"/><path d="M1475.88,378.72V113.2h66.86c.81,8.8,1.64,17.7,2.55,27.52a25.68,25.68,0,0,0,3.35-2.44c27.56-30.09,62.12-36.31,100.1-28,32.7,7.13,48,31,54.19,61.75a175.21,175.21,0,0,1,3.53,33.48c.34,56,.16,111.91.14,167.87,0,1.49-.18,3-.32,5.17h-72.07V368.05q0-80.3,0-160.58c0-23.66-7.54-35.62-25.11-40.07-24.74-6.28-50.7,2.59-60.12,21-1.67,3.27-1.67,7.64-1.68,11.5q-.13,83.94-.06,167.88v10.91Z"/><path d="M297.86,249.37c-.24,75.12-61.65,135.75-137.07,135.33-74.66-.41-135.1-61.65-134.87-136.63S87.59,112.32,163,112.74C237.67,113.15,298.11,174.39,297.86,249.37Zm-136.1,72.08c39.94.35,72.54-31.92,72.85-72.13A72.42,72.42,0,0,0,163,176c-40.79-.36-73.47,31.59-73.77,72.13S120.92,321.1,161.76,321.45Z"/><path d="M1894,324.77c0,16.35.15,32.7-.21,49.05,0,1.86-2.65,4.8-4.59,5.32-23.87,6.39-47.93,8.2-71.85.49-28.3-9.12-41-30.91-42.54-58.66-1.8-33.35-1-66.85-1.23-100.29-.12-18.17,0-36.35,0-55.71h-38.34V112.9h38V47.21h72v64.95h45.57v52.37h-44.13c-.51,2.36-1.19,4-1.19,5.72,0,43.18-.13,86.37.29,129.54.18,18.87,6.92,24.88,25.7,25C1878.61,324.8,1885.83,324.77,1894,324.77Z"/><path d="M409.51,378.78H338.2V113h67.12c.81,9.09,1.59,18,2.52,28.54,3.19-4.1,5.44-7.13,7.84-10,17.89-21.71,41-27.93,67.84-22.49,2.13.43,5.51,2.78,5.54,4.28.36,21.51.24,43,.24,64.29-11.17,0-20.64-1-29.79.26-10.95,1.51-22.3,3.46-32.24,7.95-11.89,5.37-18.19,15.3-18,29.85.64,50.75.24,101.51.24,152.27Z"/><path d="M1145,379h-70.73V112.87H1145Z"/><path d="M295.93,412.36c-2.58,51.85-51.62,120.91-135.45,120.07C76.82,531.59,30,461.93,27.91,412.37c14.15,0,28.36.89,42.41-.26,13.45-1.1,21,1.78,26.68,16,11,27.47,39.15,42.58,69.05,41.08a71.32,71.32,0,0,0,64.34-48.55c2.3-6.7,5.36-8.66,12.22-8.46C260.18,412.72,277.77,412.36,295.93,412.36Z"/><path d="M1109.33,6.2c28.92.34,46.11,21.36,39,48C1143.41,72.66,1126,82.37,1101.92,80c-17.25-1.7-31.1-15.36-32.22-31.78-1.45-21.21,8.38-36.15,27-40.58C1100.8,6.67,1105.11,6.65,1109.33,6.2Z"/><path class="cls-1" d="M943.06,246.46c0,13.68-.62,27.4.19,41,.78,13.14-5.41,22.15-15,29.4-25.36,19.16-60.55,10.51-73.72-18.26-9.65-21.08-10.73-43.68-8-66.14a170.66,170.66,0,0,1,10.3-42.07c6.29-15.91,19.76-24,37.2-24.77,19.7-.84,35.93,5.39,46.21,23.08a24.16,24.16,0,0,1,2.74,11.21C943.24,215.44,943.06,231,943.06,246.46Z"/><path class="cls-1" d="M659.54,256.74c0,16.3.34,29.94-.23,43.53-.15,3.51-2.45,7.53-4.93,10.25-15,16.52-34.15,21.41-55.47,17.12-11.09-2.23-19.27-9.4-21.69-20.91-2.93-13.94-.22-27,11.29-36.24,5.49-4.4,12.53-8.36,19.33-9.35C624.49,258.72,641.41,258.15,659.54,256.74Z"/><path class="cls-1" d="M1366.77,220.13h-97c0-33.75,23.53-56.43,56.33-54.72C1352.78,166.81,1369.74,189.25,1366.77,220.13Z"/><path class="cls-1" d="M161.76,321.45c-40.84-.35-72.89-32.73-72.58-73.32s33-72.49,73.77-72.13a72.42,72.42,0,0,1,71.66,73.32C234.3,289.53,201.7,321.8,161.76,321.45Z"/></svg>